<svg xmlns="http://www.w3.org/2000/svg" width="1200" height="700" viewBox="0 0 1200 700">
  <rect width="1200" height="700" fill="#0f172a"/>
  <rect x="40" y="40" width="720" height="620" rx="20" fill="#111827" stroke="#38bdf8" stroke-width="3"/>
  <rect x="80" y="90" width="640" height="420" rx="14" fill="#1f2937"/>
  <rect x="100" y="110" width="180" height="110" rx="10" fill="#22c55e" opacity="0.9"/>
  <rect x="320" y="110" width="180" height="110" rx="10" fill="#ef4444" opacity="0.9"/>
  <rect x="540" y="110" width="140" height="110" rx="10" fill="#22c55e" opacity="0.9"/>
  <rect x="100" y="260" width="180" height="110" rx="10" fill="#ef4444" opacity="0.9"/>
  <rect x="320" y="260" width="180" height="110" rx="10" fill="#22c55e" opacity="0.9"/>
  <rect x="540" y="260" width="140" height="110" rx="10" fill="#ef4444" opacity="0.9"/>
  <rect x="820" y="80" width="320" height="520" rx="20" fill="#111827" stroke="#60a5fa" stroke-width="3"/>
  <text x="860" y="140" font-family="Segoe UI, Arial" font-size="28" fill="#f8fafc">SMART PARKING</text>
  <text x="860" y="180" font-family="Segoe UI, Arial" font-size="20" fill="#38bdf8">Live Occupancy Dashboard</text>
  <rect x="850" y="220" width="260" height="80" rx="12" fill="#1e293b" stroke="#475569"/>
  <text x="900" y="262" font-family="Segoe UI, Arial" font-size="26" fill="#22c55e">6 FREE</text>
  <rect x="850" y="330" width="260" height="80" rx="12" fill="#1e293b" stroke="#475569"/>
  <text x="900" y="372" font-family="Segoe UI, Arial" font-size="26" fill="#ef4444">4 OCCUPIED</text>
  <rect x="850" y="440" width="260" height="120" rx="12" fill="#1e293b" stroke="#475569"/>
  <text x="880" y="490" font-family="Segoe UI, Arial" font-size="24" fill="#fbbf24">Realtime Slot Status</text>
  <text x="880" y="525" font-family="Segoe UI, Arial" font-size="16" fill="#94a3b8">Camera + OpenCV detection</text>
  <text x="80" y="620" font-family="Segoe UI, Arial" font-size="28" fill="#e2e8f0">Computer Vision Smart Parking System</text>
</svg>
